<svg xmlns="http://www.w3.org/2000/svg" viewBox="0 0 16 16">
    <path d="M 7.5 1 C 7.066 1 6.6434219 1.0459531 6.2324219 1.1269531 L 6.4277344 2.1074219 C 6.7747344 2.0384219 7.133 2 7.5 2 C 7.6902396 2 7.8773078 2.0105642 8.0625 2.0292969 C 8.2354087 2.047373 8.404514 2.0740649 8.5722656 2.1074219 L 8.5722656 2.1054688 C 11.0998 2.6030679 13 4.8237221 13 7.5 C 13 10.176278 11.0998 12.396932 8.5722656 12.894531 L 8.5722656 12.892578 C 8.4020015 12.926435 8.2302573 12.952601 8.0546875 12.970703 C 7.8719853 12.988927 7.6876045 13 7.5 13 C 7.132 13 6.7776875 12.953766 6.4296875 12.884766 L 6.234375 13.863281 C 6.645375 13.945281 7.065 14 7.5 14 C 11.084167 14 14 11.084167 14 7.5 C 14 3.915833 11.084167 1 7.5 1 z M 3.890625 2.0976562 C 3.182625 2.5726563 2.5804687 3.1875313 2.1054688 3.8945312 L 2.9355469 4.4492188 C 3.3375469 3.8502187 3.8463125 3.3316875 4.4453125 2.9296875 L 3.890625 2.0976562 z M 10.115234 5.1796875 L 7.3300781 8.5214844 L 5.7167969 7.0097656 L 5.0332031 7.7402344 L 7.4199219 9.9765625 L 10.884766 5.8203125 L 10.115234 5.1796875 z M 1.1367188 6.234375 C 1.0547187 6.645375 1 7.065 1 7.5 C 1 7.934 1.0459531 8.3565781 1.1269531 8.7675781 L 2.1074219 8.5722656 C 2.0384219 8.2252656 2 7.867 2 7.5 C 2 7.132 2.0462344 6.7776875 2.1152344 6.4296875 L 1.1367188 6.234375 z M 2.9296875 10.554688 L 2.0976562 11.109375 C 2.5726562 11.817375 3.1875313 12.419531 3.8945312 12.894531 L 4.4492188 12.064453 C 3.8502187 11.662453 3.3316875 11.153687 2.9296875 10.554688 z"/>
</svg>
